<svg xmlns="http://www.w3.org/2000/svg" version="1.1" xmlns:xlink="http://www.w3.org/1999/xlink" xmlns:svgjs="http://svgjs.dev/svgjs" width="1000" height="131" viewBox="0 0 1000 131"><g transform="matrix(1,0,0,1,-0.6060606060606233,-0.4825796334710333)"><svg viewBox="0 0 396 52" data-background-color="#dedede" preserveAspectRatio="xMidYMid meet" height="131" width="1000" xmlns="http://www.w3.org/2000/svg" xmlns:xlink="http://www.w3.org/1999/xlink"><g id="tight-bounds" transform="matrix(1,0,0,1,0.2400000000000091,0.1915583913751675)"><svg viewBox="0 0 395.52 51.61688111774032" height="51.61688111774032" width="395.52"><g><svg viewBox="0 0 474.31566726225293 61.900018733205364" height="51.61688111774032" width="395.52"><g><rect width="4.039224001577273" height="45.01412360844528" x="406.0938848208829" y="8.442947562380041" fill="#000000" opacity="1" stroke-width="0" stroke="transparent" fill-opacity="1" class="rect-o-0" data-fill-palette-color="primary" rx="1%" id="o-0" data-palette-color="#000000"></rect></g><g transform="matrix(1,0,0,1,0,8.554922994241842)"><svg viewBox="0 0 395.52 44.79017274472168" height="44.79017274472168" width="395.52"><g id="textblocktransform"><svg viewBox="0 0 395.52 44.79017274472168" height="44.79017274472168" width="395.52" id="textblock"><g><svg viewBox="0 0 395.52 44.79017274472168" height="44.79017274472168" width="395.52"><g transform="matrix(1,0,0,1,0,0)"><svg width="395.52" viewBox="2.5 -40.29999923706055 364.67999267578125 41.29999923706055" height="44.79017274472168" data-palette-color="#000000"><g class="undefined-text-0" data-fill-palette-color="primary" id="text-0"><path d="M26-40.3Q29.1-40.3 33.2-39.55 37.3-38.8 39.2-37.95L39.2-37.95 39.2-26.75 32.8-26.75Q30.95-30.3 28.48-31.95 26-33.6 23.1-33.6L23.1-33.6Q20.65-33.6 18.63-31.98 16.6-30.35 15.43-27.5 14.25-24.65 14.25-21.15L14.25-21.15Q14.25-17.2 15.45-13.93 16.65-10.65 19.1-8.7 21.55-6.75 25.15-6.75L25.15-6.75Q29.9-6.75 38.55-10.95L38.55-10.95 40.85-7.25 31.65-0.1Q29.25 0.6 27.08 0.8 24.9 1 22.35 1L22.35 1Q16.5 1 12-1.55 7.5-4.1 5-8.58 2.5-13.05 2.5-18.75L2.5-18.75Q2.5-24.6 6.23-29.58 9.95-34.55 15.48-37.43 21-40.3 26-40.3L26-40.3ZM68.6-40.3Q74.6-40.3 79.2-37.75 83.8-35.2 86.3-30.7 88.8-26.2 88.8-20.5L88.8-20.5Q88.8-14.65 85.02-9.7 81.25-4.75 75.65-1.88 70.05 1 65.05 1L65.05 1Q59.05 1 54.47-1.53 49.9-4.05 47.37-8.55 44.85-13.05 44.85-18.75L44.85-18.75Q44.85-24.6 48.62-29.58 52.4-34.55 58-37.43 63.6-40.3 68.6-40.3L68.6-40.3ZM65.7-33.6Q63.2-33.6 61.12-31.98 59.05-30.35 57.82-27.5 56.6-24.65 56.6-21.15L56.6-21.15Q56.6-16.9 57.85-13.4 59.1-9.9 61.67-7.8 64.25-5.7 67.95-5.7L67.95-5.7Q70.45-5.7 72.52-7.33 74.6-8.95 75.82-11.8 77.05-14.65 77.05-18.15L77.05-18.15Q77.05-22.45 75.8-25.95 74.55-29.45 72-31.53 69.45-33.6 65.7-33.6L65.7-33.6ZM115.8-39.8Q121.7-39.8 126.22-37.33 130.75-34.85 133.25-30.45 135.75-26.05 135.75-20.5L135.75-20.5Q135.75-14.8 132.02-9.98 128.3-5.15 122.77-2.33 117.25 0.5 112.25 0.5L112.25 0.5Q110.05 0.5 107.8 0.25L107.8 0.25Q104.2 0 102.15 0L102.15 0 93.3 0 93.3-3.55 98-7.25 98-33.6 92.3-35.3 94.3-39.3 102.1-39.3Q106.65-39.3 111.05-39.6L111.05-39.6Q114.25-39.8 115.8-39.8L115.8-39.8ZM113.65-4.7Q116.5-4.7 118.87-6.45 121.25-8.2 122.62-11.28 124-14.35 124-18.15L124-18.15Q124-22.7 122.67-26.43 121.35-30.15 118.62-32.38 115.9-34.6 111.9-34.6L111.9-34.6Q110.25-34.6 108.8-33.75L108.8-33.75 108.8-5.5Q110.95-4.7 113.65-4.7L113.65-4.7ZM176.94 0.9L172.79 0 140.24 0 140.24-3.55 144.94-7.25 144.94-33.75 139.24-35.3 141.24-39.3 172.29-39.3 176.44-40.2 176.44-26.7 172.94-25.2 166.64-34.55 155.69-34.55 155.69-22.45 160.54-22.45 164.19-27.6 167.74-27.6 167.74-13.4 163.74-11.4 160.39-17.7 155.69-17.7 155.69-4.75 166.19-4.75 173.44-15.1 176.94-13.6 176.94 0.9ZM205.44-40.3Q208.54-40.3 212.64-39.55 216.74-38.8 218.64-37.95L218.64-37.95 218.64-26.75 212.24-26.75Q210.39-30.3 207.91-31.95 205.44-33.6 202.54-33.6L202.54-33.6Q200.09-33.6 198.06-31.98 196.04-30.35 194.87-27.5 193.69-24.65 193.69-21.15L193.69-21.15Q193.69-17.2 194.89-13.93 196.09-10.65 198.54-8.7 200.99-6.75 204.59-6.75L204.59-6.75Q209.34-6.75 217.99-10.95L217.99-10.95 220.29-7.25 211.09-0.1Q208.69 0.6 206.51 0.8 204.34 1 201.79 1L201.79 1Q195.94 1 191.44-1.55 186.94-4.1 184.44-8.58 181.94-13.05 181.94-18.75L181.94-18.75Q181.94-24.6 185.66-29.58 189.39-34.55 194.91-37.43 200.44-40.3 205.44-40.3L205.44-40.3ZM269.44-4L267.44 0 246.74 0 246.74-3.55 252.69-6.65 250.14-12.95 235.54-12.95 233.49-7.85 240.49-4 238.49 0 221.79 0 221.79-3.55 227.64-7.9 239.64-37.7 250.34-40.25 264.24-6.35 269.44-4ZM248.19-17.7L242.74-31.1 237.39-17.7 248.19-17.7ZM326.74-3.95L324.74 0.05 305.54 0.05 305.54-3.5 310.24-7.2 310.24-28.9 298.38 0.05 293.13 0.05 280.88-29.2 280.88-6 286.63-3.95 284.63 0.05 270.94 0.05 270.94-3.5 275.63-7.2 275.63-33.15 269.94-35.3 271.94-39.3 287.94-39.3 298.69-13.6 309.24-39.3 325.74-39.3 325.74-35.75 320.99-32.05 320.99-5.35 326.74-3.95ZM350.58-19.65Q352.83-19.65 354.13-21.5 355.43-23.35 355.43-26.6L355.43-26.6Q355.43-30.1 353.76-32.33 352.08-34.55 348.83-34.55L348.83-34.55Q346.88-34.55 345.18-33.4L345.18-33.4 345.18-5.75 354.43-4 352.43 0 329.73 0 329.73-3.55 334.43-7.25 334.43-33.6 328.73-35.3 330.73-39.3 340.53-39.3Q344.73-39.3 348.83-39.6L348.83-39.6Q351.83-39.8 353.23-39.8L353.23-39.8Q357.33-39.8 360.51-38.25 363.68-36.7 365.43-34 367.18-31.3 367.18-28L367.18-28Q367.18-24.4 364.31-21.18 361.43-17.95 357.06-16.13 352.68-14.3 348.63-14.5L348.63-14.5 346.53-15.7 348.53-19.7 350.58-19.7 350.58-19.65Z" fill="#000000" data-fill-palette-color="primary"></path></g></svg></g></svg></g></svg></g></svg></g><g transform="matrix(1,0,0,1,420.70699364334314,0)"><svg viewBox="0 0 53.60867361890987 61.900018733205364" height="61.900018733205364" width="53.60867361890987"><g><svg xmlns="http://www.w3.org/2000/svg" xmlns:xlink="http://www.w3.org/1999/xlink" version="1.1" x="0" y="0" viewBox="9.46500015258789 3.9690001010894775 71.07000732421875 82.06199645996094" enable-background="new 0 0 90 90" xml:space="preserve" height="61.900018733205364" width="53.60867361890987" class="icon-icon-0" data-fill-palette-color="accent" id="icon-0"><polygon points="38.182,57.753 20.18,47.91 20.18,42.455 38.182,32.652 38.182,39.074 25.625,45.113 38.182,51.379 " fill="#61777f" data-fill-palette-color="accent"></polygon><polygon points="39.848,62.08 46.351,27.918 50.136,27.918 43.56,62.08 " fill="#61777f" data-fill-palette-color="accent"></polygon><polygon points="51.8,57.78 51.8,51.4 64.372,45.181 51.8,39.028 51.8,32.696 69.82,42.5 69.82,47.91 " fill="#61777f" data-fill-palette-color="accent"></polygon><path d="M44.999 86.031L9.465 65.517V24.484L44.999 3.969l35.536 20.516v41.029L44.999 86.031 44.999 86.031zM13.07 63.434l31.929 18.434L76.93 63.434V26.566L44.999 8.131 13.07 26.565V63.434L13.07 63.434z" fill="#61777f" data-fill-palette-color="accent"></path></svg></g></svg></g></svg></g><defs></defs></svg><rect width="395.52" height="51.61688111774032" fill="none" stroke="none" visibility="hidden"></rect></g></svg></g></svg>